<svg width="32" height="32" viewBox="0 0 32 32" fill="none" xmlns="http://www.w3.org/2000/svg">
<rect width="32" height="32" fill="white"/>
<path fill-rule="evenodd" clip-rule="evenodd" d="M17.6095 3.99754L15.9005 6.17173L14.3857 3.97291L15.2493 3.12891L15.995 3.92235L16.7615 3.13669L17.6095 3.99754Z" fill="#EE1A26"/>
<path fill-rule="evenodd" clip-rule="evenodd" d="M20.123 25.2033H21.498V23.116L22.9908 24.5628C23.1202 24.6925 23.2316 24.8027 23.3636 24.9336C23.5255 25.0944 23.5332 25.2085 23.8375 25.2046C24.31 25.2046 24.859 25.2331 25.3199 25.2046C25.2073 25.0334 24.8176 24.686 24.6467 24.511C24.4059 24.2685 24.1858 24.0481 23.9424 23.8083L22.5454 22.3964L24.4395 20.488C24.534 20.3947 25.048 19.9059 25.0713 19.8398C24.6402 19.81 24.1404 19.8398 23.699 19.8333C23.4335 19.8333 23.5164 19.8113 23.2536 20.0757C23.1241 20.2054 23.0205 20.3078 22.895 20.4349L21.5058 21.8013V19.8242H20.1321L20.123 25.2033Z" fill="#EE1A26"/>
<path fill-rule="evenodd" clip-rule="evenodd" d="M7.10755 23.7976V24.9243C7.28234 25.0539 8.06562 25.216 8.34397 25.2575C8.84135 25.3349 9.34741 25.3384 9.8458 25.2678C10.8065 25.0954 11.2933 24.5898 11.2946 23.5461C11.2946 21.6572 9.00167 22.1369 8.46438 21.6014C8.39165 21.5204 8.34848 21.417 8.3419 21.3083C8.33532 21.1995 8.36571 21.0917 8.42813 21.0024C8.78417 20.5215 10.1863 20.8287 10.6136 20.9947C10.7148 21.0439 10.8212 21.0818 10.9307 21.1075V20.0132C10.4107 19.8632 9.87403 19.7787 9.33311 19.7617C8.67282 19.7617 8.2171 19.7617 7.75748 20.0599C7.55378 20.1859 7.38455 20.3607 7.265 20.5684C7.14546 20.7762 7.07934 21.0104 7.0726 21.2501C7.06094 22.1576 7.35484 22.5854 8.23781 22.8758C8.8968 23.095 10.2381 23.1157 9.94549 23.9312C9.79661 24.346 9.00815 24.3798 8.49286 24.2734C8.24247 24.2239 7.99588 24.1567 7.75489 24.0725C7.59824 24.0167 7.21242 23.8002 7.10108 23.7976H7.10755Z" fill="#EE1A26"/>
<path fill-rule="evenodd" clip-rule="evenodd" d="M15.1239 20.8718C15.2327 20.9184 15.1149 20.724 15.177 20.956C15.177 20.956 15.1848 21.0857 15.1848 21.0935V25.1488L16.4626 25.1566C16.4626 25.0788 16.4367 21.0183 16.473 20.9314C16.5092 20.8445 16.4549 20.9146 16.5209 20.8692H18.3011V19.8242H13.3438V20.8614L15.1239 20.8718ZM16.517 20.8718C16.451 20.9171 16.5028 20.8562 16.4691 20.934C16.4354 21.0118 16.4588 25.0827 16.4588 25.1592L15.1809 25.1514V21.0961C15.1809 21.0857 15.1731 20.9586 15.1731 20.9586C15.111 20.7266 15.2288 20.921 15.1201 20.8744V25.2033L16.5002 25.2098L16.5105 20.8718H16.517Z" fill="#EE1A26"/>
<path d="M7.34082 29.9498V27.2777H8.60313C8.87126 27.2721 9.13708 27.3285 9.37994 27.4424C9.59243 27.5445 9.77191 27.7044 9.89782 27.9039C10.0211 28.1196 10.086 28.3639 10.086 28.6124C10.086 28.861 10.0211 29.1053 9.89782 29.321C9.77278 29.5218 9.59313 29.6829 9.37994 29.7851C9.13729 29.8997 8.87133 29.956 8.60313 29.9498H7.34082ZM8.09562 29.3469H8.56429C8.70362 29.3502 8.8417 29.3199 8.96694 29.2587C9.07692 29.1998 9.16702 29.1096 9.22588 28.9994C9.28886 28.8781 9.32174 28.7434 9.32174 28.6066C9.32174 28.4699 9.28886 28.3351 9.22588 28.2138C9.16531 28.1072 9.07543 28.0204 8.96694 27.9636C8.8417 27.9024 8.70362 27.8721 8.56429 27.8754H8.09562V29.3469Z" fill="#EE1A26"/>
<path d="M12.6378 29.9971C12.4367 29.9987 12.2371 29.9636 12.0487 29.8934C11.8736 29.8288 11.7134 29.7296 11.5774 29.6017C11.4425 29.4735 11.3353 29.3188 11.2627 29.1472C11.1901 28.9757 11.1535 28.791 11.1554 28.6047C11.1532 28.4155 11.1916 28.2281 11.268 28.055C11.3405 27.8888 11.4458 27.7388 11.5774 27.6142C11.7126 27.4866 11.872 27.3874 12.0461 27.3225C12.428 27.1842 12.8462 27.1842 13.2281 27.3225C13.4019 27.387 13.5611 27.4853 13.6968 27.6116C13.8287 27.7358 13.9344 27.8853 14.0075 28.0511C14.084 28.2255 14.1224 28.4143 14.1202 28.6047C14.1222 28.7967 14.0843 28.987 14.0088 29.1635C13.9366 29.3303 13.8308 29.4803 13.6981 29.6043C13.5618 29.7304 13.4021 29.8286 13.2281 29.8934C13.0393 29.9638 12.8392 29.999 12.6378 29.9971ZM12.6378 29.3709C12.7348 29.3715 12.831 29.3534 12.9213 29.3178C13.0077 29.2832 13.0859 29.2306 13.1505 29.1635C13.2159 29.0956 13.2674 29.0154 13.3019 28.9275C13.3762 28.7245 13.3762 28.5017 13.3019 28.2987C13.268 28.2091 13.2165 28.1271 13.1505 28.0576C13.0859 27.9905 13.0077 27.9379 12.9213 27.9033C12.7385 27.8324 12.5358 27.8324 12.3529 27.9033C12.2651 27.9386 12.1857 27.9921 12.1199 28.0603C12.0541 28.1284 12.0033 28.2097 11.971 28.2987C11.8985 28.5021 11.8985 28.7242 11.971 28.9275C12.0041 29.0154 12.0552 29.0954 12.1209 29.1624C12.1867 29.2294 12.2657 29.2819 12.3529 29.3165C12.4435 29.3527 12.5402 29.3712 12.6378 29.3709Z" fill="#EE1A26"/>
<path d="M15.3291 29.9494V27.2773H16.6885C17.0415 27.2773 17.3048 27.3422 17.4783 27.4718C17.5593 27.5282 17.6254 27.6037 17.6705 27.6917C17.7156 27.7796 17.7386 27.8773 17.7372 27.9761C17.7394 28.1053 17.7019 28.232 17.6297 28.3392C17.5533 28.4475 17.4479 28.532 17.3255 28.5829C17.1784 28.6444 17.0201 28.6744 16.8607 28.6711L16.9332 28.487C17.1005 28.4835 17.2667 28.513 17.4226 28.5738C17.5536 28.6233 17.6674 28.7097 17.7502 28.8227C17.8286 28.937 17.8694 29.073 17.8667 29.2117C17.8701 29.3182 17.846 29.4238 17.7968 29.5182C17.7476 29.6127 17.6749 29.6929 17.5857 29.751C17.3377 29.8966 17.0518 29.9643 16.7649 29.9455L15.3291 29.9494ZM16.071 29.4036H16.7041C16.8078 29.4108 16.9113 29.3873 17.0018 29.3361C17.0328 29.3119 17.0578 29.2809 17.075 29.2455C17.0922 29.2101 17.1012 29.1713 17.1012 29.1319C17.1012 29.0926 17.0922 29.0538 17.075 29.0184C17.0578 28.983 17.0328 28.952 17.0018 28.9278C16.9109 28.8777 16.8076 28.8547 16.7041 28.8616H16.0179V28.343H16.5901C16.6897 28.3495 16.7891 28.327 16.8762 28.2782C16.9058 28.2552 16.9298 28.2257 16.9462 28.192C16.9627 28.1583 16.9712 28.1213 16.9712 28.0837C16.9712 28.0462 16.9627 28.0092 16.9462 27.9755C16.9298 27.9418 16.9058 27.9123 16.8762 27.8893C16.789 27.841 16.6896 27.8189 16.5901 27.8258H16.0722L16.071 29.4036Z" fill="#EE1A26"/>
<path d="M19.0664 29.9498V27.2778H20.2821C20.4987 27.2727 20.714 27.3134 20.9139 27.397C21.0818 27.4669 21.2248 27.5857 21.3243 27.738C21.4214 27.8956 21.4709 28.078 21.4667 28.2631C21.4721 28.4488 21.4226 28.6319 21.3243 28.7894C21.2236 28.9389 21.0807 29.0549 20.9139 29.1226C20.7136 29.2048 20.4985 29.2445 20.2821 29.2393H19.482L19.8212 28.9191V29.9563L19.0664 29.9498ZM19.8212 29.0073L19.482 28.6559H20.2368C20.3632 28.6652 20.4888 28.6283 20.5902 28.5522C20.6658 28.4757 20.7081 28.3726 20.7081 28.265C20.7081 28.1575 20.6658 28.0543 20.5902 27.9779C20.4893 27.9006 20.3635 27.8632 20.2368 27.8728H19.482L19.8212 27.5267V29.0073ZM20.7119 29.9498L20.0542 28.9761H20.8582L21.525 29.9498H20.7119Z" fill="#EE1A26"/>
<path d="M24.0352 29.9971C23.8342 29.9987 23.6346 29.9635 23.4462 29.8933C23.2741 29.8295 23.1166 29.7317 22.9832 29.6056C22.8497 29.4795 22.743 29.3278 22.6694 29.1595C22.5931 28.9846 22.5547 28.7955 22.5567 28.6046C22.5546 28.4155 22.593 28.228 22.6694 28.0549C22.7434 27.8871 22.8503 27.7358 22.9838 27.61C23.1172 27.4842 23.2744 27.3864 23.4462 27.3224C23.8276 27.1842 24.2454 27.1842 24.6269 27.3224C24.8006 27.3869 24.9599 27.4852 25.0956 27.6115C25.2275 27.7358 25.3332 27.8852 25.4063 28.0511C25.4828 28.2255 25.5212 28.4142 25.519 28.6046C25.5208 28.7965 25.4833 28.9867 25.4089 29.1634C25.3367 29.3302 25.2309 29.4802 25.0982 29.6042C24.9614 29.7304 24.8013 29.8286 24.6269 29.8933C24.4377 29.964 24.2372 29.9992 24.0352 29.9971ZM24.0352 29.3709C24.1323 29.3714 24.2285 29.3534 24.3188 29.3177C24.4054 29.2834 24.4835 29.2308 24.5479 29.1634C24.6139 29.0937 24.6658 29.0118 24.7007 28.9223C24.7732 28.719 24.7732 28.4968 24.7007 28.2935C24.6658 28.204 24.6139 28.1221 24.5479 28.0523C24.4835 27.985 24.4054 27.9324 24.3188 27.8981C24.2285 27.8624 24.1323 27.8444 24.0352 27.8449C23.9382 27.8441 23.8419 27.8622 23.7517 27.8981C23.6649 27.9326 23.5863 27.9852 23.5213 28.0523C23.454 28.1211 23.4019 28.2033 23.3685 28.2935C23.2977 28.4971 23.2977 28.7187 23.3685 28.9223C23.4019 29.0125 23.454 29.0947 23.5213 29.1634C23.5863 29.2306 23.6649 29.2832 23.7517 29.3177C23.8419 29.3536 23.9382 29.3716 24.0352 29.3709Z" fill="#EE1A26"/>
<path fill-rule="evenodd" clip-rule="evenodd" d="M21.2274 14.4023L10.4777 14.4088L7.48438 16.7114H24.5094L21.2274 14.4023Z" fill="#EE1A26"/>
<path fill-rule="evenodd" clip-rule="evenodd" d="M15.9985 10.6055L11.6289 13.599H20.144L15.9985 10.6055Z" fill="#EE1A26"/>
<path fill-rule="evenodd" clip-rule="evenodd" d="M23.6433 4.67188L18.9902 11.4032L20.6811 12.5739L25.3329 5.84259L23.6433 4.67188Z" fill="#EE1A26"/>
<path fill-rule="evenodd" clip-rule="evenodd" d="M26.2803 9.97933L24.5882 8.8125L21.5664 13.1829L23.2547 14.3549L26.2803 9.97933Z" fill="#EE1A26"/>
<path fill-rule="evenodd" clip-rule="evenodd" d="M21.2283 3L18.292 7.24724L19.856 8.3285L22.7923 4.08255L21.2283 3Z" fill="#EE1A26"/>
<path fill-rule="evenodd" clip-rule="evenodd" d="M26.2206 6.46094L25.001 8.22284L26.6892 9.39486L27.9088 7.63165L26.2206 6.46094Z" fill="#EE1A26"/>
<path fill-rule="evenodd" clip-rule="evenodd" d="M17.8812 7.83984L16.5801 9.7314L18.1415 10.814L19.4439 8.93018L17.8812 7.83984Z" fill="#EE1A26"/>
<path fill-rule="evenodd" clip-rule="evenodd" d="M8.26475 4.68359L12.9178 11.4162L11.227 12.5856L6.5752 5.85431L8.26475 4.68359Z" fill="#EE1A26"/>
<path fill-rule="evenodd" clip-rule="evenodd" d="M5.62695 9.99234L7.3191 8.82422L10.3409 13.1959L8.65262 14.3666L5.62695 9.99234Z" fill="#EE1A26"/>
<path fill-rule="evenodd" clip-rule="evenodd" d="M10.6789 3.01172L13.6165 7.25896L12.0513 8.34152L9.11621 4.09427L10.6789 3.01172Z" fill="#EE1A26"/>
<path fill-rule="evenodd" clip-rule="evenodd" d="M5.68826 6.47266L6.90785 8.23586L5.2183 9.40657L4 7.64337L5.68826 6.47266Z" fill="#EE1A26"/>
<path fill-rule="evenodd" clip-rule="evenodd" d="M14.0275 7.85156L15.3287 9.74182L13.7673 10.8244L12.4648 8.9406L14.0275 7.85156Z" fill="#EE1A26"/>
</svg>
