<svg width="89" height="87" viewBox="0 0 89 87" fill="none" xmlns="http://www.w3.org/2000/svg">
<rect x="87.3372" y="86.0013" width="86.6667" height="85.3333" rx="42.6667" transform="rotate(-180 87.3372 86.0013)" stroke="#D1D1D1" stroke-width="1.33333"/>
<path d="M34.6581 42.4768L55.9043 42.4734C56.2087 42.4734 56.5008 42.5943 56.716 42.8096C56.9313 43.0249 57.0522 43.3169 57.0522 43.6213C57.0522 43.9258 56.9313 44.2178 56.716 44.4331C56.5008 44.6483 56.2087 44.7693 55.9043 44.7693L34.6581 44.7659L44.7633 54.8711C44.9781 55.0859 45.0987 55.3772 45.0987 55.6809C45.0987 55.9847 44.9781 56.276 44.7633 56.4907C44.5485 56.7055 44.2572 56.8262 43.9535 56.8262C43.6497 56.8262 43.3584 56.7055 43.1437 56.4907L31.0841 44.4312C30.8693 44.2164 30.7486 43.9251 30.7486 43.6213C30.7486 43.3176 30.8693 43.0263 31.0841 42.8115L43.1437 30.7519C43.3584 30.5371 43.6497 30.4165 43.9535 30.4165C44.2572 30.4165 44.5485 30.5371 44.7633 30.7519C44.9781 30.9667 45.0987 31.258 45.0987 31.5617C45.0987 31.8655 44.9781 32.1568 44.7633 32.3716L34.6581 42.4768Z" fill="#212C33"/>
</svg>
