<svg width="9" height="11" viewBox="0 0 9 11" fill="none" xmlns="http://www.w3.org/2000/svg">
<path d="M0.406999 10.1875H7.7195C7.82102 10.1873 7.91893 10.2251 7.99395 10.2935C8.06897 10.3619 8.11566 10.4559 8.12484 10.557C8.13401 10.6581 8.10499 10.759 8.04351 10.8398C7.98202 10.9206 7.89252 10.9754 7.79262 10.9935L7.7195 11H0.406999C0.30548 11.0002 0.207571 10.9624 0.13255 10.894C0.0575296 10.8256 0.0108353 10.7316 0.00166256 10.6305C-0.00751014 10.5294 0.0215034 10.4285 0.0829898 10.3477C0.144476 10.2669 0.233979 10.2121 0.333874 10.194L0.406999 10.1875ZM3.99012 0.444L4.06325 0.4375C4.15833 0.437468 4.25041 0.470789 4.32346 0.53166C4.3965 0.592531 4.44588 0.677095 4.463 0.770625L4.4695 0.84375V7.98725L6.64862 5.80894C6.71584 5.74164 6.80455 5.70006 6.89927 5.69145C6.994 5.68284 7.08875 5.70774 7.167 5.76181L7.22387 5.80894C7.29105 5.87626 7.33247 5.96501 7.34094 6.05973C7.3494 6.15446 7.32436 6.24915 7.27019 6.32731L7.22306 6.38337L4.35087 9.25638C4.28355 9.32355 4.1948 9.36498 4.10008 9.37344C4.00535 9.3819 3.91066 9.35686 3.8325 9.30269L3.77562 9.25638L0.903436 6.38337C0.831462 6.31172 0.788936 6.21571 0.78424 6.11426C0.779544 6.0128 0.813019 5.91327 0.878066 5.83528C0.943114 5.75728 1.03502 5.70648 1.13566 5.69288C1.23631 5.67928 1.3384 5.70387 1.42181 5.76181L1.47787 5.80894L3.657 7.98725V0.84375C3.65697 0.748667 3.69029 0.656585 3.75116 0.58354C3.81203 0.510495 3.89659 0.461115 3.99012 0.444Z" fill="#676C7A"/>
</svg>
