<svg width="27" height="27" viewBox="0 0 27 27" fill="none" xmlns="http://www.w3.org/2000/svg">
<rect x="0.333313" y="0.333496" width="26.6667" height="26.6667" rx="13.3333" fill="#EE1A26"/>
<path fill-rule="evenodd" clip-rule="evenodd" d="M9.92499 12.9327C9.7502 12.9327 9.58257 13.0022 9.45897 13.1258C9.33538 13.2494 9.26594 13.417 9.26594 13.5918C9.26594 13.7666 9.33538 13.9342 9.45897 14.0578C9.58257 14.1814 9.7502 14.2508 9.92499 14.2508L15.703 14.2499L13.1263 16.8265C13.0029 16.95 12.9336 17.1174 12.9336 17.292C12.9336 17.4665 13.0029 17.634 13.1263 17.7574C13.2498 17.8808 13.4172 17.9502 13.5918 17.9502C13.7663 17.9502 13.9338 17.8808 14.0572 17.7574L17.7574 14.0572C17.8808 13.9338 17.9502 13.7664 17.9502 13.5918C17.9502 13.4172 17.8808 13.2498 17.7574 13.1264L14.0572 9.4262C13.9338 9.30276 13.7663 9.23342 13.5918 9.23342C13.4172 9.23341 13.2498 9.30276 13.1263 9.4262C13.0029 9.54964 12.9336 9.71706 12.9336 9.89163C12.9336 10.0662 13.0029 10.2336 13.1263 10.3571L15.703 12.9337L9.92499 12.9327Z" fill="white"/>
</svg>
