<svg width="36" height="59" viewBox="0 0 36 59" fill="none" xmlns="http://www.w3.org/2000/svg">
<g id="Logo_STK_sport_black 4" clip-path="url(#clip0_632_71)">
<g id="Layer 2">
<g id="Layer 1">
<path id="Vector" fill-rule="evenodd" clip-rule="evenodd" d="M0.401437 46.4166V48.5164C0.743575 48.7531 2.28724 49.0593 2.82604 49.1365C3.79758 49.2812 4.78616 49.2882 5.75981 49.1571C7.64562 48.8355 8.58852 47.8911 8.59121 45.9457C8.59121 42.428 4.11108 43.3209 3.06042 42.3431C2.91863 42.1917 2.83455 41.9991 2.82183 41.7963C2.80912 41.5936 2.86851 41.3927 2.99038 41.2263C3.68543 40.3282 6.42523 40.9021 7.26038 41.2263C7.45819 41.3175 7.66601 41.3874 7.88 41.4347V39.3967C6.86341 39.1178 5.81473 38.9596 4.75764 38.9258C3.46722 38.9258 2.57819 38.9258 1.6784 39.4816C1.27926 39.716 0.947261 40.0414 0.71217 40.4285C0.477079 40.8156 0.346243 41.2524 0.331392 41.6998C0.30984 43.3853 0.883663 44.1907 2.60244 44.7311C3.89017 45.1377 6.51144 45.1788 5.94031 46.6971C5.64936 47.469 4.10839 47.5334 3.10083 47.3352C2.61722 47.2385 2.14108 47.1104 1.6757 46.9518C1.37128 46.8489 0.616957 46.4372 0.398743 46.4372L0.401437 46.4166Z" fill="#EE1A26"/>
<path id="Vector_2" fill-rule="evenodd" clip-rule="evenodd" d="M16.0698 40.9588C16.2826 41.0463 16.0536 40.6809 16.1749 41.1132C16.1749 41.1132 16.1883 41.35 16.1883 41.3706V48.9283L18.6857 48.9437C18.6857 48.7996 18.6345 41.2239 18.7072 41.0669C18.78 40.9099 18.6722 41.036 18.7988 40.9537H22.2795V39.0083H12.5811V40.9511L16.0698 40.9588ZM18.7907 40.9588C18.6641 41.0412 18.7638 40.928 18.6991 41.0721C18.6345 41.2162 18.6776 48.7919 18.6776 48.9489L16.1802 48.9334V41.3757C16.1802 41.3551 16.1668 41.1184 16.1668 41.1184C16.0455 40.6861 16.2745 41.0515 16.0617 40.964V49.0312H18.7557L18.7746 40.946L18.7907 40.9588Z" fill="#EE1A26"/>
<g id="3610254048">
<path id="Vector_3" fill-rule="evenodd" clip-rule="evenodd" d="M3.73933 25.6944L10.6602 18.8547L9.12464 17.4316L2.20105 24.2714L3.73933 25.6944Z" fill="#EE1A26"/>
<path id="Vector_4" fill-rule="evenodd" clip-rule="evenodd" d="M13.0012 21.021L11.463 19.6006L6.96667 24.0421L8.50495 25.4676L13.0012 21.021Z" fill="#EE1A26"/>
<path id="Vector_5" fill-rule="evenodd" clip-rule="evenodd" d="M1.42244 23.5557L5.78942 19.2404L4.36698 17.9229L0 22.2408L1.42244 23.5557Z" fill="#EE1A26"/>
<path id="Vector_6" fill-rule="evenodd" clip-rule="evenodd" d="M6.08308 27.8584L7.89614 26.0674L6.35787 24.647L4.5448 26.4405L6.08308 27.8584Z" fill="#EE1A26"/>
<path id="Vector_7" fill-rule="evenodd" clip-rule="evenodd" d="M9.62834 9.40024V9.44399L9.57177 9.40024L9.49634 9.34363L9.53136 9.28444L9.62565 9.2793L9.62834 9.40024Z" fill="#EE1A26"/>
<path id="Vector_8" fill-rule="evenodd" clip-rule="evenodd" d="M20.8165 29.778L16.9533 33.2056L13.0363 29.724L14.8412 28.0591L16.956 29.9453L19.0816 28.0591L20.8165 29.778Z" fill="#EE1A26"/>
<path id="Vector_9" fill-rule="evenodd" clip-rule="evenodd" d="M6.40366 18.6331L8.34065 16.7186L6.91822 15.4062L4.97314 17.3208L6.40366 18.6331Z" fill="#EE1A26"/>
</g>
<g id="3610254048_2">
<path id="Vector_10" fill-rule="evenodd" clip-rule="evenodd" d="M31.9644 0L34.0011 1.61602L24.3269 4.89951V2.85633L31.9644 0Z" fill="#EE1A26"/>
<path id="Vector_11" fill-rule="evenodd" clip-rule="evenodd" d="M11.4172 25.8099L9.49637 27.5829L7.68869 29.3842L9.42902 31.0079L11.2394 29.2066L16.983 23.8028L17.018 23.7719L16.9237 23.6844L16.9534 23.6304L17.0207 23.7693L17.0557 23.8053L22.759 29.2092L24.5774 30.9951L26.4174 29.253L24.5532 27.534L18.0876 21.6644L23.3166 16.7083V10.2107L24.3269 9.40017H24.3484L25.6469 11.3661L26.9616 9.40017H29.828V15.4062L31.959 17.4802V9.40017V8.04405L33.9903 1.61087L31.4094 2.48321L29.7337 7.34927H23.4729L21.1237 9.40789L21.059 13.2935L12.977 13.2807L12.9609 9.42075L10.5201 7.36213H4.4047L2.64551 2.48835L9.69842 4.91238V2.8692L2.12557 0L0 1.61602L2.11749 7.8665L2.09324 9.41046V17.4365L4.19726 15.4062L4.24306 9.40017H7.02058L8.35142 11.3661L9.63915 9.40017V9.44391L10.803 10.3214V16.7083L15.962 21.6155L15.9781 21.6001L16.0051 21.6592L15.962 21.6155L11.4172 25.8099ZM21.0132 15.7587H20.9944L17.0692 19.5208L12.9851 15.7793V15.4062H21.0132V15.7587Z" fill="#EE1A26"/>
</g>
<g id="3610254048_3">
<path id="Vector_12" fill-rule="evenodd" clip-rule="evenodd" d="M31.8054 24.2608L24.8683 17.4365L23.3328 18.8621L30.2698 25.6864L31.8054 24.2608Z" fill="#EE1A26"/>
<path id="Vector_13" fill-rule="evenodd" clip-rule="evenodd" d="M25.5068 25.4702L27.037 24.042L22.5327 19.6108L20.9971 21.0339L25.5068 25.4702Z" fill="#EE1A26"/>
<path id="Vector_14" fill-rule="evenodd" clip-rule="evenodd" d="M34.001 22.2256L29.6259 17.918L28.2062 19.2381L32.5812 23.5431L34.001 22.2256Z" fill="#EE1A26"/>
<path id="Vector_15" fill-rule="evenodd" clip-rule="evenodd" d="M26.1157 26.07L27.9315 27.8584L29.4671 26.4328L27.6513 24.647L26.1157 26.07Z" fill="#EE1A26"/>
<path id="Vector_16" fill-rule="evenodd" clip-rule="evenodd" d="M29.0172 17.3156L27.0667 15.4062L25.647 16.7212L27.5894 18.6331L29.0172 17.3156Z" fill="#EE1A26"/>
</g>
<g id="3610254048_4">
<path id="Vector_17" fill-rule="evenodd" clip-rule="evenodd" d="M15.9674 6.1758H18.0984V2.86914H15.9674V6.1758Z" fill="#EE1A26"/>
</g>
<g id="3610254048_5">
<path id="Vector_18" fill-rule="evenodd" clip-rule="evenodd" d="M11.8644 6.1758H14.0169V2.86914H11.8644V6.1758Z" fill="#EE1A26"/>
</g>
<g id="3610254048_6">
<path id="Vector_19" fill-rule="evenodd" clip-rule="evenodd" d="M20.0596 6.1758H22.1986V2.86914H20.0596V6.1758Z" fill="#EE1A26"/>
</g>
<path id="Vector_20" fill-rule="evenodd" clip-rule="evenodd" d="M25.8383 49.0288H28.5323V45.138L31.4499 47.8348C31.7004 48.0921 31.9186 48.2826 32.1773 48.527C32.4925 48.8255 32.5086 49.0417 33.1013 49.0417C34.028 49.0288 35.0976 49.0931 36.0001 49.0288C35.5903 48.5734 35.1502 48.1436 34.6827 47.7422C34.2139 47.2919 33.7829 46.8801 33.3087 46.4324L30.577 43.7871L34.2786 40.2308C34.713 39.8472 35.1258 39.4417 35.5151 39.0162C34.6719 38.9622 33.694 39.0162 32.8211 39.0162C32.3039 39.0162 32.4655 38.975 31.951 39.4665L31.2505 40.1356L28.5296 42.7089V39.0265H25.8356L25.8383 49.0288Z" fill="#EE1A26"/>
<path id="Vector_21" d="M2.69396 59.0002C2.25746 59.0015 1.82268 58.9478 1.40083 58.8407C1.04839 58.757 0.711987 58.6206 0.404053 58.4367L0.910526 57.3482C1.17285 57.5044 1.45542 57.6273 1.75106 57.7136C2.05816 57.8091 2.37909 57.8577 2.70204 57.8577C2.87522 57.8632 3.04837 57.8459 3.21659 57.8063C3.31919 57.7814 3.41249 57.7297 3.486 57.657C3.54551 57.5945 3.57737 57.5124 3.5749 57.428C3.57253 57.3744 3.55533 57.3223 3.52504 57.2771C3.49475 57.2319 3.45246 57.1952 3.40248 57.1707C3.2637 57.0938 3.11397 57.0366 2.95797 57.0008C2.77478 56.9545 2.57542 56.9108 2.3599 56.867C2.13853 56.8232 1.91995 56.7674 1.70526 56.6997C1.49113 56.6357 1.28718 56.5439 1.09911 56.427C0.918851 56.3136 0.769289 56.161 0.662677 55.9818C0.543298 55.7713 0.485593 55.5339 0.495649 55.2947C0.494751 54.9955 0.588668 54.7031 0.76505 54.4558C0.968225 54.1839 1.24868 53.9731 1.57325 53.8486C1.99631 53.6846 2.45045 53.6067 2.90678 53.6195C3.26052 53.619 3.61312 53.6579 3.95745 53.7353C4.27906 53.8021 4.5874 53.9176 4.87071 54.0776L4.40465 55.1609C4.16318 55.0291 3.90519 54.9271 3.63686 54.8573C3.39719 54.7943 3.14996 54.7614 2.9014 54.7595C2.72806 54.7543 2.55503 54.7769 2.38954 54.8264C2.2852 54.8585 2.19203 54.9172 2.12013 54.9962C2.06562 55.0593 2.03521 55.1383 2.03393 55.2201C2.033 55.2771 2.04862 55.3333 2.07905 55.3823C2.10949 55.4314 2.15354 55.4714 2.20634 55.498C2.34359 55.5743 2.49276 55.629 2.64816 55.6601C2.82866 55.7013 3.02801 55.7451 3.24892 55.7888C3.46983 55.8326 3.68535 55.8892 3.90357 55.9561C4.11439 56.0173 4.31625 56.1037 4.50433 56.2134C4.68681 56.3242 4.83989 56.474 4.95153 56.6509C5.07212 56.8573 5.13084 57.0914 5.12126 57.3276C5.11986 57.6237 5.02504 57.9124 4.84916 58.1562C4.64582 58.4287 4.3655 58.6402 4.04096 58.7661C3.61433 58.9342 3.15524 59.014 2.69396 59.0002Z" fill="#EE1A26"/>
<path id="Vector_22" d="M7.45703 58.8945V53.7093H9.93013C10.3714 53.6994 10.8099 53.7774 11.2179 53.9384C11.5593 54.0753 11.8501 54.3065 12.053 54.6023C12.2434 54.9125 12.3437 55.2656 12.3437 55.6251C12.3437 55.9847 12.2434 56.3378 12.053 56.648C11.8473 56.9403 11.5572 57.1691 11.2179 57.3068C10.8108 57.4708 10.3719 57.5506 9.93013 57.5409H8.31373L9.00339 56.8951V58.8945H7.45703ZM8.99261 57.0649L8.30295 56.3778H9.83853C10.0963 56.3966 10.3525 56.3263 10.5605 56.1797C10.6417 56.1097 10.7054 56.0232 10.7469 55.9265C10.7884 55.8299 10.8067 55.7256 10.8003 55.6213C10.8051 55.5179 10.7861 55.4148 10.7447 55.3192C10.7033 55.2237 10.6404 55.1379 10.5605 55.068C10.3533 54.9196 10.097 54.8474 9.83853 54.8647H8.30295L8.99261 54.1905V57.0649Z" fill="#EE1A26"/>
<path id="Vector_23" d="M17.546 59C17.1378 59.0034 16.7324 58.9354 16.3499 58.7993C15.8119 58.6141 15.3475 58.2735 15.0212 57.8249C14.6949 57.3763 14.5228 56.8418 14.5287 56.2955C14.5256 55.9281 14.6037 55.5643 14.7577 55.2276C14.9084 54.9062 15.1235 54.6159 15.3908 54.3733C15.6653 54.1249 15.9898 53.9324 16.3445 53.8072C17.121 53.5395 17.971 53.5395 18.7475 53.8072C19.1026 53.9308 19.4278 54.1216 19.7039 54.3681C19.9709 54.6095 20.1852 54.899 20.3343 55.2199C20.4901 55.5587 20.5682 55.9255 20.5633 56.2955C20.5677 56.6692 20.4916 57.0397 20.3397 57.384C20.1922 57.7072 19.9767 57.998 19.7066 58.2384C19.4285 58.4843 19.1027 58.6757 18.7475 58.8019C18.3631 58.9378 17.9558 59.005 17.546 59ZM17.546 57.7829C17.7443 57.7851 17.941 57.7501 18.1252 57.6799C18.2993 57.6128 18.4571 57.512 18.5886 57.384C18.7235 57.2487 18.8296 57.0896 18.9011 56.9157C19.0484 56.5204 19.0484 56.0887 18.9011 55.6934C18.8299 55.5193 18.7237 55.3602 18.5886 55.225C18.4579 55.0948 18.3001 54.9922 18.1252 54.924C17.7531 54.7879 17.3416 54.7879 16.9695 54.924C16.7927 54.9916 16.6329 55.0942 16.5007 55.225C16.3641 55.3581 16.2577 55.5167 16.1882 55.6908C16.0445 56.0867 16.0445 56.5172 16.1882 56.9131C16.2573 57.089 16.3637 57.2493 16.5007 57.384C16.635 57.5124 16.7955 57.6131 16.9722 57.6799C17.1546 57.7498 17.3495 57.7847 17.546 57.7829Z" fill="#EE1A26"/>
<path id="Vector_24" d="M23.0229 58.8944V53.7093H25.496C25.9373 53.6998 26.3757 53.7778 26.7838 53.9383C27.1239 54.076 27.4136 54.3071 27.6162 54.6022C27.8173 54.9104 27.9185 55.2685 27.9072 55.6315C27.9202 55.9947 27.8188 56.3532 27.6162 56.6608C27.4118 56.9507 27.1222 57.1764 26.7838 57.3093C26.3755 57.4689 25.9371 57.546 25.496 57.5357H23.8796L24.572 56.913V58.9124L23.0229 58.8944ZM24.5585 57.0648L23.8662 56.3829H25.4018C25.6595 56.4017 25.9158 56.3314 26.1238 56.1848C26.2785 56.037 26.3661 55.8369 26.3676 55.6279C26.3691 55.4189 26.2844 55.2178 26.1318 55.068C25.9246 54.9195 25.6683 54.8473 25.4098 54.8647H23.8743L24.5666 54.1905L24.5585 57.0648ZM26.3716 58.8944L25.0246 57.0056H26.6706L28.0176 58.8944H26.3716Z" fill="#EE1A26"/>
<path id="Vector_25" d="M31.4741 58.8946V54.8726H29.8065V53.7095H34.6557V54.8726H32.9962V58.8946H31.4741Z" fill="#EE1A26"/>
</g>
</g>
</g>
<defs>
<clipPath id="clip0_632_71">
<rect width="36" height="59" fill="white"/>
</clipPath>
</defs>
</svg>
