<svg width="193" height="192" viewBox="0 0 193 192" fill="none" xmlns="http://www.w3.org/2000/svg">
<path d="M128.469 95.0234L79.1354 123.023L79.1354 67.0234L128.469 95.0234Z" fill="white"/>
<path fill-rule="evenodd" clip-rule="evenodd" d="M96.4688 188.357C148.033 188.357 189.802 146.852 189.802 95.6908C189.802 44.5299 148.033 3.02409 96.4688 3.02409C44.9046 3.02409 3.13542 44.5299 3.13542 95.6908C3.13542 146.852 44.9046 188.357 96.4688 188.357ZM96.4688 191.024C149.488 191.024 192.469 148.342 192.469 95.6908C192.469 43.0396 149.488 0.357422 96.4688 0.357422C43.4494 0.357422 0.46875 43.0396 0.46875 95.6908C0.46875 148.342 43.4494 191.024 96.4688 191.024Z" fill="white"/>
</svg>
